<?xml version="1.0" encoding="UTF-8" standalone="no"?>
<!-- Created with Inkscape (http://www.inkscape.org/) -->

<svg
   xmlns:dc="http://purl.org/dc/elements/1.1/"
   xmlns:cc="http://creativecommons.org/ns#"
   xmlns:rdf="http://www.w3.org/1999/02/22-rdf-syntax-ns#"
   xmlns:svg="http://www.w3.org/2000/svg"
   xmlns="http://www.w3.org/2000/svg"
   xmlns:sodipodi="http://sodipodi.sourceforge.net/DTD/sodipodi-0.dtd"
   xmlns:inkscape="http://www.inkscape.org/namespaces/inkscape"
   id="svg2"
   version="1.1"
   inkscape:version="0.91 r13725"
   xml:space="preserve"
   width="620"
   height="620"
   viewBox="0 0 620 620"
   sodipodi:docname="favicon.svg"><metadata
     id="metadata8"><rdf:RDF><cc:Work
         rdf:about=""><dc:format>image/svg+xml</dc:format><dc:type
           rdf:resource="http://purl.org/dc/dcmitype/StillImage" /><dc:title></dc:title></cc:Work></rdf:RDF></metadata><defs
     id="defs6" /><sodipodi:namedview
     pagecolor="#ffffff"
     bordercolor="#666666"
     borderopacity="1"
     objecttolerance="10"
     gridtolerance="10"
     guidetolerance="10"
     inkscape:pageopacity="0"
     inkscape:pageshadow="2"
     inkscape:window-width="1038"
     inkscape:window-height="754"
     id="namedview4"
     showgrid="false"
     inkscape:zoom="0.38064516"
     inkscape:cx="310"
     inkscape:cy="310"
     inkscape:window-x="96"
     inkscape:window-y="58"
     inkscape:window-maximized="0"
     inkscape:current-layer="g10" /><g
     id="g10"
     inkscape:groupmode="layer"
     inkscape:label="ZaPF_Logo_vektoriell"
     transform="matrix(1.25,0,0,-1.25,0,620)"><g
       id="g12"
       transform="scale(0.1,0.1)"><path
         d="m 3510,3066.56 c 130.78,36.22 239.15,114.29 438.08,315.62 l 103.07,104.32 -110.41,77.53 c -374.45,262.92 -596.23,321.58 -810.68,214.42 -82.74,-41.34 -183.13,-142.02 -220.59,-221.19 -71.33,-150.77 -11.95,-310.66 157.01,-422.81 133.55,-88.65 284.91,-111.82 443.52,-67.89 M 3382.66,2572.5 c 4.58,78.8 31.72,200.03 62.7,280 6.07,15.65 -0.67,17.5 -63.9,17.5 -108.47,0 -266.33,19.6 -371.37,46.11 -166.5,42.03 -314.09,126.2 -457.79,261.06 l -72.3,67.86 0,-765.03 897.28,0 5.38,92.5 z M 1502.26,1264.16 c 208.69,39.93 358.92,153.21 405.32,305.64 26.27,86.29 23.55,344.03 -4.51,427.68 -76.85,229.1 -250.61,310.24 -643.07,300.33 -170.14,-4.3 -217.26,-16.89 -238.61,-63.77 -8.01,-17.58 -11.39,-167.23 -11.39,-504.51 l 0,-479.53 209.12,0 c 138.87,0 233.99,4.75 283.14,14.16 M 0,73.8086 l 0,73.7934 157.5,4.296 c 171.809,4.68 206.289,14.071 239.91,65.364 16.442,25.09 17.762,90.476 20.18,997.288 2.43,909.45 1.488,972.6 -15,1004.73 -35.371,68.95 -54.692,75.35 -238.281,78.89 L 0,2301.35 0.351562,2468.17 0.691406,2635 831.109,3665 c 456.741,566.5 844.221,1047.19 861.071,1068.22 l 30.64,38.22 -398.91,-4.01 c -368.531,-3.7 -405.172,-5.65 -481.172,-25.51 C 560.309,4668.08 402.461,4499.19 321.871,4184.61 L 295.078,4080 0,4080 l 0,880 2480,0 0,-155.94 -871.04,-1074.53 C 1129.89,3138.54 733.051,2649.02 727.078,2641.71 c -9,-11.04 68.082,-12.57 453.542,-9 506.49,4.7 533.3,7.4 664.38,67.02 211.31,96.11 369.22,326.14 444.68,647.77 11.36,48.43 14.56,52.5 41.32,52.5 15.95,0 29,1.78 29,3.96 0,2.18 -16.04,37.73 -35.63,79 -42.41,89.29 -68.1,217.85 -59.36,297.04 14.68,133 53.96,218.62 143.47,312.66 182.11,191.35 450.45,244.44 743.31,147.05 179.64,-59.73 482.17,-228.1 846.22,-470.96 106.15,-70.81 196.48,-128.75 200.74,-128.75 16.12,0 279,277 303.7,320 81.19,141.39 73.99,311.97 -19,450 -91.25,135.43 -259.66,249.11 -382.2,257.97 -70.53,5.1 -84.37,-5.98 -107.43,-86.09 -50.27,-174.55 -156.94,-278.24 -297.45,-289.12 -87.85,-6.8 -159.81,22.43 -240.07,97.52 -88.41,82.7 -119.02,143.23 -124.42,246.07 -3.73,71.05 -1.08,88.59 20.43,135.58 30.81,67.32 74.18,117.32 136.34,157.2 l 48.1,30.87 245.06,0 c 277.56,0 285.48,-1.51 446.55,-84.69 271.11,-140.03 546.05,-416.66 690.98,-695.21 l 40.66,-78.16 0,-266.37 c 0,-294.41 1.96,-283.73 -72.83,-395.57 -16.55,-24.75 -235.2,-250.88 -485.88,-502.5 L 3945.5,2480 l 1014.5,0 0,-850 -59.8,0 c -67.41,0 -59.48,-11.27 -80.9,115 -53.2,313.53 -181.85,476.89 -431.04,547.3 -65.81,18.6 -107.75,21.13 -412.17,25.02 -299.5,3.81 -344,2.37 -382.71,-12.41 -75.08,-28.67 -73.38,-16.92 -73.38,-505.97 l 0,-432.05 132.5,6.57 c 145.74,7.23 212.36,21.44 293.87,62.67 109.11,55.22 205.77,194.93 234.36,338.79 l 12.94,65.08 166.33,0 0,-1130.809 -82.5,2.911 -82.5,2.898 -6.61,66.891 c -14.16,143.121 -54.71,233.349 -141.94,315.849 -101.45,95.95 -213.54,131.24 -418.95,131.91 l -107.5,0.35 0,-949.309 30.94,-35.23 C 3596.84,193.18 3653.41,180 3831.82,180 l 148.18,0 0,-180 -1500,0 0,178.238 157.5,3.453 c 176.6,3.868 219.22,16.047 253.64,72.508 18.04,29.582 18.78,69.68 18.82,1013.751 l 0.04,982.96 -23.72,23.72 c -36.12,36.12 -87.26,45.25 -253.78,45.31 l -152.5,0.06 0,160 -382.5,-0.66 -382.5,-0.65 110,-23.24 c 452.05,-95.53 714.2,-343.37 714.85,-675.85 0.31,-155.88 -53.76,-283.88 -168.92,-399.95 -115.84,-116.77 -248.42,-185.43 -452.64,-234.44 -168.9,-40.53 -227.61,-45.85 -576.1,-52.14 l -332.8,-6 2.8,-427.89 2.81,-427.879 28.47,-29.711 C 1083.63,159.68 1135.41,150 1319.43,150 L 1480,150 1480,0 0,0"
         style="fill:#0b2a51;fill-opacity:1;fill-rule:nonzero;stroke:none"
         id="path14"
         inkscape:connector-curvature="0" /></g></g></svg>